<svg width="21" height="21" viewBox="0 0 21 21" fill="none" xmlns="http://www.w3.org/2000/svg">
<path d="M15.75 0H5.25001C2.35201 0 0 2.34151 0 5.22901V11.508V12.558C0 15.4455 2.35201 17.787 5.25001 17.787H6.82502C7.10852 17.787 7.48652 17.976 7.66502 18.2071L9.24003 20.2966C9.93303 21.2206 11.067 21.2206 11.76 20.2966L13.335 18.2071C13.5345 17.9446 13.8495 17.787 14.175 17.787H15.75C18.6481 17.787 21.0001 15.4455 21.0001 12.558V5.22901C21.0001 2.34151 18.6481 0 15.75 0ZM6.30002 10.5C5.71202 10.5 5.25001 10.0275 5.25001 9.45003C5.25001 8.87252 5.72252 8.40002 6.30002 8.40002C6.87752 8.40002 7.35002 8.87252 7.35002 9.45003C7.35002 10.0275 6.88802 10.5 6.30002 10.5ZM10.5 10.5C9.91203 10.5 9.45003 10.0275 9.45003 9.45003C9.45003 8.87252 9.92253 8.40002 10.5 8.40002C11.0775 8.40002 11.55 8.87252 11.55 9.45003C11.55 10.0275 11.088 10.5 10.5 10.5ZM14.7 10.5C14.112 10.5 13.65 10.0275 13.65 9.45003C13.65 8.87252 14.1225 8.40002 14.7 8.40002C15.2775 8.40002 15.75 8.87252 15.75 9.45003C15.75 10.0275 15.288 10.5 14.7 10.5Z" fill="#003DF5"/>
</svg>
