<svg width="28" height="28" viewBox="0 0 28 28" fill="none" xmlns="http://www.w3.org/2000/svg">
<path d="M26.8553 12.1698L2.23105 0.156782C1.99442 0.0414666 1.73233 -0.0117409 1.46946 0.0021672C1.20659 0.0160753 0.951578 0.0966418 0.728431 0.236284C0.505284 0.375926 0.321338 0.570051 0.193905 0.800388C0.0664724 1.03073 -0.000255764 1.2897 7.36696e-07 1.55294V1.59748C0.000126773 1.80559 0.0257722 2.01289 0.076363 2.21475L2.4385 11.6633C2.47017 11.7892 2.53956 11.9024 2.63738 11.9877C2.7352 12.073 2.85676 12.1263 2.98577 12.1406L13.3672 13.2949C13.5399 13.3157 13.6991 13.399 13.8145 13.5292C13.93 13.6593 13.9937 13.8273 13.9937 14.0013C13.9937 14.1752 13.93 14.3432 13.8145 14.4733C13.6991 14.6035 13.5399 14.6868 13.3672 14.7076L2.98577 15.862C2.85676 15.8762 2.7352 15.9296 2.63738 16.0149C2.53956 16.1002 2.47017 16.2134 2.4385 16.3392L0.076363 25.7865C0.0257722 25.9884 0.000126773 26.1957 7.36696e-07 26.4038V26.4483C-3.97416e-05 26.7114 0.066846 26.9703 0.194368 27.2004C0.32189 27.4306 0.505858 27.6245 0.728971 27.764C0.952084 27.9035 1.20701 27.984 1.46978 27.9978C1.73254 28.0117 1.99451 27.9585 2.23105 27.8432L26.8541 15.8301C27.197 15.6628 27.486 15.4026 27.6882 15.079C27.8904 14.7554 27.9975 14.3815 27.9975 14C27.9975 13.6184 27.8904 13.2446 27.6882 12.921C27.486 12.5974 27.1983 12.3371 26.8553 12.1698Z" fill="#667085"/>
</svg>
