<svg preserveAspectRatio="none" width="100%" height="100%" overflow="visible" style="display: block;" viewBox="0 0 28 27" fill="none" xmlns="http://www.w3.org/2000/svg">
<g id="Group">
<path id="Vector" d="M26.6955 11.416C25.8765 10.429 24.5943 9.81586 23.349 9.81586H20.0549C20.7963 8.63449 21.3542 7.44568 21.6942 6.31365C22.2131 4.58619 22.1949 3.08033 21.6417 1.95885C21.0185 0.695684 19.7557 0 18.086 0C17.9003 4.36688e-06 17.7188 0.0551495 17.5645 0.158443C17.4102 0.261736 17.2901 0.408525 17.2193 0.580195C15.9192 3.73354 12.5282 8.26576 9.33322 11.2514C9.00721 10.119 7.96242 9.28787 6.7265 9.28787H2.71283C1.21699 9.28787 0 10.5049 0 12.0006V23.933C0 25.4289 1.21699 26.6459 2.71283 26.6459H6.7265C7.64156 26.6459 8.45168 26.1899 8.94328 25.4938C9.68695 26.2093 10.6729 26.6459 11.7531 26.6459H21.8595C22.9767 26.6459 23.9716 26.1701 24.7368 25.2701C25.3675 24.5282 25.8154 23.5258 26.0321 22.3714L27.5217 14.4363C27.7216 13.3716 27.4281 12.299 26.6955 11.416ZM7.56428 23.9331C7.56428 24.395 7.18846 24.7709 6.7265 24.7709H2.71283C2.25088 24.7709 1.875 24.395 1.875 23.9331V12.0007C1.875 11.5387 2.25088 11.1629 2.71283 11.1629H6.7265C7.18846 11.1629 7.56428 11.5387 7.56428 12.0007V23.9331ZM25.6789 14.0903L24.1893 22.0256C23.9402 23.3528 23.1973 24.7709 21.8594 24.7709H11.7531C10.4773 24.7709 9.43934 23.617 9.43934 22.1985V13.659C12.9732 10.7254 16.9308 5.68693 18.6779 1.92111C19.6101 2.07885 19.8662 2.59781 19.9602 2.78836C20.5687 4.02182 20.0637 6.86191 17.517 10.1828C17.4105 10.3217 17.345 10.4875 17.3279 10.6616C17.3108 10.8358 17.3427 11.0112 17.4202 11.1681C17.4976 11.325 17.6173 11.4571 17.7659 11.5495C17.9145 11.6419 18.086 11.6908 18.261 11.6908H23.3491C24.0405 11.6908 24.7877 12.0529 25.2526 12.6132C25.5143 12.9288 25.8008 13.4411 25.6789 14.0903Z" fill="var(--fill-0, #454B58)"/>
</g>
</svg>
