<svg preserveAspectRatio="none" width="100%" height="100%" overflow="visible" style="display: block;" viewBox="0 0 35 35" fill="none" xmlns="http://www.w3.org/2000/svg">
<g id="more">
<path id="Vector" d="M7.29167 14.5833C5.6875 14.5833 4.375 15.8958 4.375 17.5C4.375 19.1042 5.6875 20.4167 7.29167 20.4167C8.89583 20.4167 10.2083 19.1042 10.2083 17.5C10.2083 15.8958 8.89583 14.5833 7.29167 14.5833Z" fill="var(--fill-0, #667085)"/>
<path id="Vector_2" d="M27.7083 14.5833C26.1042 14.5833 24.7917 15.8958 24.7917 17.5C24.7917 19.1042 26.1042 20.4167 27.7083 20.4167C29.3125 20.4167 30.625 19.1042 30.625 17.5C30.625 15.8958 29.3125 14.5833 27.7083 14.5833Z" fill="var(--fill-0, #667085)"/>
<path id="Vector_3" d="M17.5 14.5833C15.8958 14.5833 14.5833 15.8958 14.5833 17.5C14.5833 19.1042 15.8958 20.4167 17.5 20.4167C19.1042 20.4167 20.4167 19.1042 20.4167 17.5C20.4167 15.8958 19.1042 14.5833 17.5 14.5833Z" fill="var(--fill-0, #667085)"/>
<g id="Vector_4" opacity="0">
</g>
</g>
</svg>
